Coordinates
version=1
nRows=12
nColumns=23
inDegrees=yes

Units are S.I. units (second, meters, Newtons, ...)
If the header above contains a line with 'inDegrees', this indicates whether rotational values are in degrees (yes) or radians (no).

endheader
time	pelvis_tilt	pelvis_list	pelvis_rotation	pelvis_tx	pelvis_ty	pelvis_tz	hip_flexion_r	hip_adduction_r	hip_rotation_r	knee_angle_r	knee_angle_r_beta	ankle_angle_r	subtalar_angle_r	mtp_angle_r	hip_flexion_l	hip_adduction_l	hip_rotation_l	knee_angle_l	knee_angle_l_beta	ankle_angle_l	subtalar_angle_l	mtp_angle_l
     15.00000000	    -17.09329158	      3.05227503	      0.97658546	      2.22511747	      1.08091154	      1.02242982	     -0.54057722	     -7.26400732	    -20.07429264	     21.76911418	      0.37994272	    -13.19731493	      6.61101740	      0.00000000	     46.61592987	     -1.06159643	     -9.88327491	     58.48662898	      1.02078424	      3.19643622	    -10.92986181	      0.00000000
     15.00666667	    -17.05181958	      3.21656135	      1.16141888	      2.22679714	      1.08449759	      1.02175466	     -1.55857165	     -7.58591530	    -20.70838367	     21.77158550	      0.37998585	    -15.88633931	      5.68295273	      0.00000000	     46.00474805	     -0.62268922	    -10.56974990	     54.05396813	      0.94341972	      3.60631882	    -10.07155985	      0.00000000
     15.01333333	    -17.15788433	      3.32360077	      1.35202616	      2.22817344	      1.08736794	      1.02089877	     -2.20571052	     -7.95546481	    -21.44038265	     22.27466878	      0.38876631	    -18.05607258	      4.72308312	      0.00000000	     45.49628341	     -0.21684094	    -11.29331292	     49.56904064	      0.86514297	      4.02681162	     -9.06692415	      0.00000000
     15.02000000	    -16.90341898	      3.42962177	      1.50574495	      2.22957994	      1.09030284	      1.02008174	     -3.13795909	     -8.25977100	    -21.81032370	     22.98981062	      0.40124789	    -19.72057639	      3.54604053	      0.00000000	     44.49620131	      0.14253577	    -12.19184172	     45.01126562	      0.78559479	      4.48786436	     -7.70944787	      0.00000000
     15.02666667	    -16.84316699	      3.50043418	      1.66214804	      2.23060557	      1.09237211	      1.01904261	     -3.62438839	     -8.62973416	    -22.11597565	     24.26617832	      0.42352471	    -20.78771342	      2.41814610	      0.00000000	     43.68082979	      0.53090851	    -13.08561827	     40.47737828	      0.70646352	      4.89958810	     -6.25639461	      0.00000000
     15.03333333	    -16.63836295	      3.55573537	      1.78922022	      2.23149718	      1.09410183	      1.01789218	     -4.11902460	     -8.97310101	    -22.12196481	     25.85257151	      0.45121249	    -21.38291840	      1.24567282	      0.00000000	     42.66918554	      0.89951460	    -14.11412293	     36.00468896	      0.62840037	      5.32181458	     -4.45965034	      0.00000000
     15.04000000	    -16.51695472	      3.59136957	      1.92429605	      2.23209614	      1.09509526	      1.01653742	     -4.33891406	     -9.32558959	    -21.91619482	     27.84245987	      0.48594260	    -21.57339800	      0.02188849	      0.00000000	     41.76255761	      1.33615489	    -15.04684903	     31.67933138	      0.55290864	      5.67895228	     -2.66835227	      0.00000000
     15.04666667	    -16.34089815	      3.60643595	      2.03458080	      2.23252361	      1.09566242	      1.01513009	     -4.46691016	     -9.61455503	    -21.38682244	     30.09258412	      0.52521467	    -21.45799039	     -1.18303047	      0.00000000	     40.80126758	      1.79142013	    -15.92668773	     27.53018784	      0.48049242	      6.03282411	     -0.74142740	      0.00000000
     15.05333333	    -16.17132051	      3.57624764	      2.13591627	      2.23269538	      1.09561586	      1.01367492	     -4.42035750	     -9.82918549	    -20.62724418	     32.63218614	      0.56953909	    -21.22886113	     -2.40595253	      0.00000000	     39.91276668	      2.26462883	    -16.54661681	     23.68617272	      0.41340170	      6.31794543	      1.07382866	      0.00000000
     15.06000000	    -16.00041695	      3.54276343	      2.22330418	      2.23267907	      1.09510419	      1.01225441	     -4.22368510	    -10.00913937	    -19.72587762	     35.40350201	      0.61790768	    -20.97864958	     -3.69085273	      0.00000000	     39.06590110	      2.77009376	    -16.87396320	     20.14993432	      0.35168270	      6.50794017	      2.66004837	      0.00000000
     15.06666667	    -15.81678407	      3.50796198	      2.32626516	      2.23245939	      1.09413426	      1.01091030	     -3.89557307	    -10.13897767	    -18.72178013	     38.39117179	      0.67005235	    -20.86393394	     -5.06950425	      0.00000000	     38.23416973	      3.33953016	    -16.64752846	     16.90253471	      0.29500488	      6.49574987	      3.67242835	      0.00000000
     15.07333333	    -15.67879996	      3.46700230	      2.48572585	      2.23205396	      1.09268250	      1.00967252	     -3.39814784	    -10.24608426	    -17.80382841	     41.57019223	      0.72553673	    -20.93173654	     -6.53552917	      0.00000000	     37.43139553	      3.97719275	    -15.66925052	     13.88996862	      0.24242569	      6.17676187	      3.70425340	      0.00000000
